# xmcd CD database file
#
# Track frame offsets:
#	150
#	13133
#	32137
#	48805
#	64466
#	81248
#	94276
#	108715
#	131314
#	144166
#	159800
#
# Disc length: 2405 seconds
#
# Revision: 0
# Processed by: cddbd v1.5.1PL0 Copyright (c) Steve Scherf et al.
# Submitted via: CDex 1.51
#
DISCID=8c09630b
DTITLE=Barney Bigard and His Orchestra - Clarinet Gumbo
DYEAR=1973
DGENRE=Jazz
TTITLE0=Memoir De Bayou
TTITLE1=Clarinet Gumbo
TTITLE2=Off Shore
TTITLE3=Satchmo's Dream
TTITLE4=Struttin' With Some Barbeque
TTITLE5=Mood Indigo
TTITLE6=Wampum
TTITLE7=Tea For Two
TTITLE8=Florence Off Ramp
TTITLE9=Easy On The Ears
TTITLE10=Slings And Arrows
EXTD=YEAR: 1973
EXTT0=
EXTT1=
EXTT2=
EXTT3=
EXTT4=
EXTT5=
EXTT6=
EXTT7=
EXTT8=
EXTT9=
EXTT10=
PLAYORDER=
